# xmcd
#
# Track frame offsets: 
#        150
#        8407
#        29810
#        46965
#        65349
#        81770
#        101090
#        122625
#        140300
#        159507
#        173541
#        188987
#        207099
#
# Disc length: 2956 seconds
#
# Revision: 3
# Processed by: cddbd v1.5.2PL0 Copyright (c) Steve Scherf et al.
# Submitted via: ExactAudioCopy v0.99pb5
#
DISCID=a40b8a0d
DTITLE=Various Artist - Los Cocorocos
DYEAR=2006
DGENRE=Salsa
TTITLE0=Gallego Intro
TTITLE1=Don Omar y Gilberto Santa Rosa - Los Hombres Tienen La Culpa
TTITLE2=Zion y Domingo Quinones - Dos Jueyes
TTITLE3=Tego y Victor Manuelle - Che Che Cole
TTITLE4=Domingo Quinones y La Sister - Mal Aguero
TTITLE5=Papo Rosario y Aniel Rosario - Perdona Viejo
TTITLE6=Tito Nieves y Pedro Brull and John Erick - Los Gorditos
TTITLE7=Mista - Ayi Viene mista
TTITLE8=Junior Gonzalez y Plaza - Mulata Rumbero
TTITLE9=Jaking y Maximo - Esa Nena
TTITLE10=Mafo Crew - Mafo Crew
TTITLE11=La Symphonia - La Wasa
TTITLE12=Voltio - Claro De Luna
EXTD=
EXTT0=
EXTT1=
EXTT2=
EXTT3=
EXTT4=
EXTT5=
EXTT6=
EXTT7=
EXTT8=
EXTT9=
EXTT10=
EXTT11=
EXTT12=
PLAYORDER=
